<svg width="1172" height="154" viewBox="0 0 1172 154" fill="none" xmlns="http://www.w3.org/2000/svg">
<path d="M1144.87 151.312V14.1121H1170.35V151.312H1144.87Z" fill="white"/>
<path d="M978.66 151.312L1040.4 14.1121H1065.49L1127.42 151.312H1100.77L1047.65 27.6361H1057.84L1004.92 151.312H978.66ZM1007.08 119.56L1013.94 99.5681H1088.03L1094.89 119.56H1007.08Z" fill="white"/>
<path d="M897.87 152.684C886.371 152.684 877.486 149.744 871.214 143.864C864.942 137.853 861.806 129.033 861.806 117.404V23.52H886.306V116.816C886.306 121.781 887.547 125.636 890.03 128.38C892.643 131.124 896.237 132.496 900.81 132.496C906.298 132.496 910.871 131.059 914.53 128.184L921.39 145.628C918.515 147.98 914.987 149.744 910.806 150.92C906.625 152.096 902.313 152.684 897.87 152.684ZM844.558 67.032V47.432H914.334V67.032H844.558Z" fill="white"/>
<path d="M783.686 45.472C792.049 45.472 799.497 47.1054 806.03 50.372C812.694 53.6387 817.921 58.6694 821.71 65.464C825.499 72.128 827.394 80.752 827.394 91.336V151.312H802.894V94.472C802.894 85.1947 800.673 78.2694 796.23 73.696C791.918 69.1227 785.842 66.836 778.002 66.836C772.253 66.836 767.157 68.012 762.714 70.364C758.271 72.716 754.809 76.244 752.326 80.948C749.974 85.5214 748.798 91.336 748.798 98.392V151.312H724.298V46.648H747.622V74.872L743.506 66.248C747.165 59.584 752.457 54.488 759.382 50.96C766.438 47.3014 774.539 45.472 783.686 45.472Z" fill="white"/>
<path d="M669.727 151.312V130.144L668.355 125.636V88.592C668.355 81.4054 666.199 75.852 661.887 71.932C657.575 67.8814 651.042 65.856 642.287 65.856C636.407 65.856 630.593 66.7707 624.843 68.6C619.225 70.4294 614.455 72.9774 610.535 76.244L600.931 58.408C606.55 54.096 613.214 50.8947 620.923 48.804C628.763 46.5827 636.865 45.472 645.227 45.472C660.385 45.472 672.079 49.1307 680.311 56.448C688.674 63.6347 692.855 74.8067 692.855 89.964V151.312H669.727ZM636.799 152.684C628.959 152.684 622.099 151.377 616.219 148.764C610.339 146.02 605.766 142.296 602.499 137.592C599.363 132.757 597.795 127.335 597.795 121.324C597.795 115.444 599.167 110.152 601.911 105.448C604.786 100.744 609.425 97.02 615.827 94.276C622.23 91.532 630.723 90.16 641.307 90.16H671.687V106.428H643.071C634.709 106.428 629.09 107.8 626.215 110.544C623.341 113.157 621.903 116.424 621.903 120.344C621.903 124.787 623.667 128.315 627.195 130.928C630.723 133.541 635.623 134.848 641.895 134.848C647.906 134.848 653.263 133.476 657.967 130.732C662.802 127.988 666.265 123.937 668.355 118.58L672.471 133.28C670.119 139.421 665.873 144.191 659.731 147.588C653.721 150.985 646.077 152.684 636.799 152.684Z" fill="white"/>
<path d="M561.569 152.684C550.07 152.684 541.185 149.744 534.913 143.864C528.641 137.853 525.505 129.033 525.505 117.404V23.52H550.005V116.816C550.005 121.781 551.246 125.636 553.729 128.38C556.342 131.124 559.936 132.496 564.509 132.496C569.997 132.496 574.57 131.059 578.229 128.184L585.089 145.628C582.214 147.98 578.686 149.744 574.505 150.92C570.324 152.096 566.012 152.684 561.569 152.684ZM508.257 67.032V47.432H578.033V67.032H508.257Z" fill="white"/>
<path d="M453.642 152.684C444.887 152.684 436.459 151.573 428.358 149.352C420.387 147 414.05 144.191 409.346 140.924L418.754 122.304C423.458 125.309 429.077 127.792 435.61 129.752C442.143 131.712 448.677 132.692 455.21 132.692C462.919 132.692 468.473 131.647 471.87 129.556C475.398 127.465 477.162 124.656 477.162 121.128C477.162 118.253 475.986 116.097 473.634 114.66C471.282 113.092 468.211 111.916 464.422 111.132C460.633 110.348 456.386 109.629 451.682 108.976C447.109 108.323 442.47 107.473 437.766 106.428C433.193 105.252 429.011 103.619 425.222 101.528C421.433 99.3067 418.362 96.3667 416.01 92.708C413.658 89.0494 412.482 84.2147 412.482 78.204C412.482 71.54 414.377 65.7907 418.166 60.956C421.955 55.9907 427.247 52.2014 434.042 49.588C440.967 46.844 449.134 45.472 458.542 45.472C465.598 45.472 472.719 46.256 479.906 47.8241C487.093 49.392 493.038 51.6134 497.742 54.488L488.334 73.108C483.369 70.1027 478.338 68.0774 473.242 67.0321C468.277 65.8561 463.311 65.2681 458.346 65.2681C450.898 65.2681 445.345 66.3787 441.686 68.6C438.158 70.8214 436.394 73.6307 436.394 77.028C436.394 80.164 437.57 82.516 439.922 84.084C442.274 85.652 445.345 86.8934 449.134 87.8081C452.923 88.7227 457.105 89.5067 461.678 90.16C466.382 90.6827 471.021 91.532 475.594 92.708C480.167 93.884 484.349 95.5174 488.138 97.608C492.058 99.568 495.194 102.377 497.546 106.036C499.898 109.695 501.074 114.464 501.074 120.344C501.074 126.877 499.114 132.561 495.194 137.396C491.405 142.231 485.982 146.02 478.926 148.764C471.87 151.377 463.442 152.684 453.642 152.684Z" fill="white"/>
<path d="M364.646 151.312V46.648H389.146V151.312H364.646ZM376.994 29.4C372.42 29.4 368.631 27.9627 365.626 25.088C362.751 22.2133 361.314 18.7507 361.314 14.7C361.314 10.5187 362.751 7.05599 365.626 4.31199C368.631 1.43733 372.42 0 376.994 0C381.567 0 385.291 1.372 388.166 4.11599C391.171 6.72933 392.674 10.0613 392.674 14.112C392.674 18.424 391.236 22.0827 388.362 25.088C385.487 27.9627 381.698 29.4 376.994 29.4Z" fill="white"/>
<path d="M296.115 152.684C287.36 152.684 278.932 151.573 270.831 149.352C262.86 147 256.523 144.191 251.819 140.924L261.227 122.304C265.931 125.309 271.549 127.792 278.083 129.752C284.616 131.712 291.149 132.692 297.683 132.692C305.392 132.692 310.945 131.647 314.343 129.556C317.871 127.465 319.635 124.656 319.635 121.128C319.635 118.253 318.459 116.097 316.107 114.66C313.755 113.092 310.684 111.916 306.895 111.132C303.105 110.348 298.859 109.629 294.155 108.976C289.581 108.323 284.943 107.473 280.239 106.428C275.665 105.252 271.484 103.619 267.695 101.528C263.905 99.3067 260.835 96.3667 258.483 92.708C256.131 89.0494 254.955 84.2147 254.955 78.204C254.955 71.54 256.849 65.7907 260.639 60.956C264.428 55.9907 269.72 52.2014 276.515 49.588C283.44 46.844 291.607 45.472 301.015 45.472C308.071 45.472 315.192 46.256 322.379 47.8241C329.565 49.392 335.511 51.6134 340.215 54.488L330.807 73.108C325.841 70.1027 320.811 68.0774 315.715 67.0321C310.749 65.8561 305.784 65.2681 300.819 65.2681C293.371 65.2681 287.817 66.3787 284.159 68.6C280.631 70.8214 278.867 73.6307 278.867 77.028C278.867 80.164 280.043 82.516 282.395 84.084C284.747 85.652 287.817 86.8934 291.607 87.8081C295.396 88.7227 299.577 89.5067 304.151 90.16C308.855 90.6827 313.493 91.532 318.067 92.708C322.64 93.884 326.821 95.5174 330.611 97.608C334.531 99.568 337.667 102.377 340.019 106.036C342.371 109.695 343.547 114.464 343.547 120.344C343.547 126.877 341.587 132.561 337.667 137.396C333.877 142.231 328.455 146.02 321.399 148.764C314.343 151.377 305.915 152.684 296.115 152.684Z" fill="white"/>
<path d="M195.244 152.684C186.489 152.684 178.061 151.573 169.96 149.352C161.989 147 155.652 144.191 150.948 140.924L160.356 122.304C165.06 125.309 170.678 127.792 177.212 129.752C183.745 131.712 190.278 132.692 196.812 132.692C204.521 132.692 210.074 131.647 213.472 129.556C217 127.465 218.764 124.656 218.764 121.128C218.764 118.253 217.588 116.097 215.236 114.66C212.884 113.092 209.813 111.916 206.024 111.132C202.234 110.348 197.988 109.629 193.284 108.976C188.71 108.323 184.072 107.473 179.368 106.428C174.794 105.252 170.613 103.619 166.824 101.528C163.034 99.3067 159.964 96.3667 157.612 92.708C155.26 89.0494 154.084 84.2147 154.084 78.204C154.084 71.54 155.978 65.7907 159.768 60.956C163.557 55.9907 168.849 52.2014 175.644 49.588C182.569 46.844 190.736 45.472 200.144 45.472C207.2 45.472 214.321 46.256 221.508 47.8241C228.694 49.392 234.64 51.6134 239.344 54.488L229.936 73.108C224.97 70.1027 219.94 68.0774 214.844 67.0321C209.878 65.8561 204.913 65.2681 199.948 65.2681C192.5 65.2681 186.946 66.3787 183.288 68.6C179.76 70.8214 177.996 73.6307 177.996 77.028C177.996 80.164 179.172 82.516 181.524 84.084C183.876 85.652 186.946 86.8934 190.736 87.8081C194.525 88.7227 198.706 89.5067 203.28 90.16C207.984 90.6827 212.622 91.532 217.196 92.708C221.769 93.884 225.95 95.5174 229.74 97.608C233.66 99.568 236.796 102.377 239.148 106.036C241.5 109.695 242.676 114.464 242.676 120.344C242.676 126.877 240.716 132.561 236.796 137.396C233.006 142.231 227.584 146.02 220.528 148.764C213.472 151.377 205.044 152.684 195.244 152.684Z" fill="white"/>
<path d="M0 151.312L61.74 14.1121H86.828L148.764 151.312H122.108L68.992 27.6361H79.184L26.264 151.312H0ZM28.42 119.56L35.28 99.5681H109.368L116.228 119.56H28.42Z" fill="white"/>
</svg>
