<svg width="48" height="48" viewBox="0 0 48 48" fill="none" xmlns="http://www.w3.org/2000/svg">
<rect width="48" height="48" rx="12" fill="#1B1B1B"/>
<path d="M18.5 33H32.4706C32.763 33 33.0002 32.7631 33.0002 32.4707L33 26.5293M19.9805 32.6713L32.6421 26.7671C32.9071 26.6435 33.0217 26.3285 32.8981 26.0635L30.3872 20.6792C30.2636 20.4142 29.9486 20.2991 29.6836 20.4227L24.0303 23.0591M21.8818 30.4048C21.3815 32.2719 19.4623 33.38 17.5952 32.8797C15.7281 32.3794 14.6198 30.4604 15.1201 28.5933L18.736 15.0986C18.8116 14.8162 19.1017 14.6485 19.3841 14.7242L25.1231 16.2617C25.4055 16.3374 25.5731 16.6276 25.4974 16.91L21.8818 30.4048ZM18.5 29.6001H18.502L18.502 29.6021L18.5 29.6021V29.6001Z" stroke="white" stroke-width="2" stroke-linecap="round" stroke-linejoin="round"/>
</svg>
