<svg width="48" height="48" viewBox="0 0 48 48" fill="none" xmlns="http://www.w3.org/2000/svg">
<rect width="48" height="48" rx="12" fill="#1B1B1B"/>
<path d="M15 21V31.4C15 31.9601 15 32.2399 15.109 32.4538C15.2049 32.642 15.3577 32.7952 15.5459 32.8911C15.7596 33 16.0395 33 16.5985 33H27.0001M29 20L25 24L23 22M19 25.8002V18.2002C19 17.0801 19 16.5196 19.218 16.0918C19.4097 15.7155 19.7155 15.4097 20.0918 15.218C20.5196 15 21.0801 15 22.2002 15H29.8002C30.9203 15 31.4801 15 31.9079 15.218C32.2842 15.4097 32.5905 15.7155 32.7822 16.0918C33.0002 16.5196 33.0002 17.0797 33.0002 18.1998L33.0002 25.7998C33.0002 26.9199 33.0002 27.48 32.7822 27.9078C32.5905 28.2841 32.2842 28.5905 31.9079 28.7822C31.4805 29 30.9215 29 29.8036 29H22.1969C21.079 29 20.5192 29 20.0918 28.7822C19.7155 28.5905 19.4097 28.2842 19.218 27.9079C19 27.4801 19 26.9203 19 25.8002Z" stroke="white" stroke-width="2" stroke-linecap="round" stroke-linejoin="round"/>
</svg>
