<svg width="48" height="48" viewBox="0 0 48 48" fill="none" xmlns="http://www.w3.org/2000/svg">
<rect width="48" height="48" rx="12" fill="#1B1B1B"/>
<path d="M15.5314 27.7768C15.6594 28.1708 16.0825 28.3864 16.4765 28.2584C16.8704 28.1304 17.086 27.7073 16.958 27.3133L15.5314 27.7768ZM31.7553 27.5451L31.042 27.3133L31.042 27.3133L31.7553 27.5451ZM28.5451 30.7553L28.3133 30.042L28.3133 30.042L28.5451 30.7553ZM32.4686 20.2232C32.3406 19.8292 31.9175 19.6136 31.5235 19.7416C31.1296 19.8696 30.914 20.2927 31.042 20.6867L32.4686 20.2232ZM19.4549 17.2447L19.2232 16.5314L19.2232 16.5314L19.4549 17.2447ZM16.2447 20.4549L15.5314 20.2232L15.5314 20.2232L16.2447 20.4549ZM27.7803 14.4697C27.4874 14.1768 27.0126 14.1768 26.7197 14.4697C26.4268 14.7626 26.4268 15.2374 26.7197 15.5303L27.7803 14.4697ZM28.4757 16.2257L29.006 15.6954L29.006 15.6954L28.4757 16.2257ZM28.4088 17.701L27.9286 17.1249L27.9286 17.1249L28.4088 17.701ZM26.5199 18.2988C26.2017 18.564 26.1587 19.0369 26.4238 19.3551C26.689 19.6733 27.1619 19.7163 27.4801 19.4512L26.5199 18.2988ZM21.5303 29.5303C21.8232 29.2374 21.8232 28.7626 21.5303 28.4697C21.2374 28.1768 20.7626 28.1768 20.4697 28.4697L21.5303 29.5303ZM19.7743 30.2257L20.3046 30.756L20.3046 30.756L19.7743 30.2257ZM19.8412 31.701L19.3611 32.2772L19.3611 32.2772L19.8412 31.701ZM20.7699 33.4512C21.0881 33.7163 21.561 33.6733 21.8262 33.3551C22.0913 33.0369 22.0483 32.564 21.7301 32.2988L20.7699 33.4512ZM19.4949 30.768L18.755 30.6453L19.4949 30.768ZM25 30.25H23V31.75H25V30.25ZM15.25 24C15.25 25.8029 15.2407 26.8822 15.5314 27.7768L16.958 27.3133C16.7593 26.7016 16.75 25.9197 16.75 24H15.25ZM31.25 24C31.25 25.9197 31.2407 26.7016 31.042 27.3133L32.4686 27.7768C32.7593 26.8822 32.75 25.8029 32.75 24H31.25ZM25 31.75C26.8029 31.75 27.8822 31.7593 28.7768 31.4686L28.3133 30.042C27.7016 30.2407 26.9197 30.25 25 30.25V31.75ZM31.042 27.3133C30.6216 28.6072 29.6072 29.6216 28.3133 30.042L28.7768 31.4686C30.5274 30.8998 31.8998 29.5274 32.4686 27.7768L31.042 27.3133ZM32.75 24C32.75 22.1971 32.7593 21.1178 32.4686 20.2232L31.042 20.6867C31.2407 21.2984 31.25 22.0803 31.25 24H32.75ZM23 16.25C21.1971 16.25 20.1178 16.2407 19.2232 16.5314L19.6867 17.958C20.2984 17.7593 21.0803 17.75 23 17.75V16.25ZM16.75 24C16.75 22.0803 16.7593 21.2984 16.958 20.6867L15.5314 20.2232C15.2407 21.1178 15.25 22.1971 15.25 24H16.75ZM19.2232 16.5314C17.4726 17.1002 16.1002 18.4726 15.5314 20.2232L16.958 20.6867C17.3784 19.3928 18.3928 18.3784 19.6867 17.958L19.2232 16.5314ZM26.7197 15.5303L27.9454 16.756L29.006 15.6954L27.7803 14.4697L26.7197 15.5303ZM27.9286 17.1249L26.5199 18.2988L27.4801 19.4512L28.8889 18.2772L27.9286 17.1249ZM20.4697 28.4697L19.244 29.6954L20.3046 30.756L21.5303 29.5303L20.4697 28.4697ZM19.3611 32.2772L20.7699 33.4512L21.7301 32.2988L20.3214 31.1249L19.3611 32.2772ZM23 17.75H28.5V16.25H23V17.75ZM27.9454 16.756C27.9988 16.8095 28.0228 16.8788 28.018 16.9497L29.5146 17.0503C29.5471 16.5677 29.3796 16.0689 29.006 15.6954L27.9454 16.756ZM28.018 16.9497C28.0135 17.0166 27.9839 17.0788 27.9286 17.1249L28.8889 18.2772C29.2732 17.957 29.4839 17.5078 29.5146 17.0503L28.018 16.9497ZM28.5 17.75H28.7663V16.25H28.5V17.75ZM19.244 29.6954C18.9757 29.9636 18.8126 30.2982 18.755 30.6453L20.2348 30.8907C20.2429 30.8419 20.2652 30.7955 20.3046 30.756L19.244 29.6954ZM18.755 30.6453C18.6577 31.2321 18.8623 31.8616 19.3611 32.2772L20.3214 31.1249C20.251 31.0662 20.2204 30.978 20.2348 30.8907L18.755 30.6453ZM23 30.25C21.1154 30.25 20.3276 30.2415 19.7176 30.0518L19.2723 31.4842C20.1548 31.7585 21.2277 31.75 23 31.75V30.25Z" fill="white"/>
</svg>
