<svg width="1920" height="992" viewBox="0 0 1920 992" fill="none" xmlns="http://www.w3.org/2000/svg">
<g clip-path="url(#clip0_598_71)">
<g clip-path="url(#clip1_598_71)">
<mask id="mask0_598_71" style="mask-type:luminance" maskUnits="userSpaceOnUse" x="341" y="-144" width="2107" height="1280">
<path d="M2447.64 1136H341.84V-144H2447.64V1136Z" fill="white"/>
</mask>
<g mask="url(#mask0_598_71)">
<path d="M725.446 1217.12C813.363 1252.8 918.828 1248.48 1002.88 1205.76C1087.12 1163.04 1148.18 1082.72 1163.8 994.4C1183.63 882.08 1134.15 760 1184.68 656.32C1227.5 568.48 1328.76 521.6 1420.71 477.76C1512.84 433.76 1611.11 376.64 1637.26 283.2C1654.98 220.16 1636.38 148.32 1670.95 91.8399C1706.22 34.3999 1786.07 13.28 1856.61 19.68C1927.15 25.92 1993.14 53.7599 2061.57 71.3599C2268.64 124.96 2502.04 80.7999 2670.32 -44.1601" stroke="#181818" stroke-width="1.6" stroke-miterlimit="10"/>
<path d="M716.496 1213.92C771.773 1235.84 834.07 1241.44 892.681 1231.36C928.304 1225.28 962.699 1213.44 993.584 1196.32C1014.12 1184.8 1033.07 1171.04 1050.09 1155.52C1090.8 1118.08 1119.93 1070.4 1136.78 1018.24C1140.81 1005.76 1144.15 993.12 1146.61 980.32C1155.2 936.8 1155.2 892.48 1154.85 849.28C1154.33 793.12 1152.92 738.56 1171 687.68C1175.03 676.48 1179.95 665.28 1186.09 654.4C1208.2 615.04 1242.77 584.32 1282.78 557.6C1327.35 527.84 1378.77 502.88 1425.62 478.08C1431.94 474.72 1438.26 471.36 1444.58 467.84C1490.38 442.4 1534.25 413.44 1568.12 377.92C1595.14 349.76 1615.67 317.12 1624.45 278.72C1629.18 258.24 1630.24 236.8 1630.41 215.36C1631.11 170.88 1628.66 125.28 1652 86.7197C1682.53 36.4797 1747.63 14.5597 1810.28 13.7597C1819.06 13.5997 1827.65 13.9197 1836.25 14.5597C1906.27 19.9997 1971.9 45.7597 2039.64 61.4397C2056.66 65.4397 2073.86 68.6397 2091.05 71.3597C2186.69 85.9197 2285.49 79.8397 2377.62 55.5197C2469.4 31.1997 2553.98 -11.2003 2623.65 -67.2003" stroke="#003499" stroke-width="1.6" stroke-miterlimit="10"/>
<path d="M707.546 1210.56C763.525 1232.16 826.348 1236.48 884.784 1224.8C920.232 1217.76 954.1 1204.8 984.108 1186.56C1004.11 1174.4 1022.36 1160 1038.33 1143.84C1076.76 1105.12 1102.73 1056.64 1119.23 1004.16C1123.27 991.52 1126.6 978.72 1129.41 965.92C1139.06 922.24 1141.69 878.72 1143.97 836.96C1146.96 782.88 1149.41 731.52 1170.3 683.52C1174.86 672.96 1180.3 662.4 1186.97 652.16C1210.83 615.04 1246.63 585.92 1287.34 559.68C1332.79 530.56 1384.56 504.48 1429.83 478.08C1435.98 474.56 1441.94 470.88 1447.91 467.2C1491.6 440 1531.26 409.92 1561.45 373.76C1585.66 345.12 1603.56 312.32 1610.58 274.08C1614.27 253.6 1614.44 232.16 1613.92 210.72C1612.86 166.24 1608.83 120.48 1632.17 81.2799C1662.17 31.3599 1727.1 9.91983 1789.22 8.63983C1797.82 8.47983 1806.42 8.63987 1815.02 9.27987C1884.51 13.9199 1949.79 37.5999 2016.83 51.3599C2033.67 54.8799 2050.69 57.5999 2067.72 59.6799C2162.13 71.5199 2258.99 62.7199 2347.26 35.6799C2435.18 8.79987 2513.79 -35.8401 2576.44 -90.7201" stroke="#003499" stroke-width="1.6" stroke-miterlimit="10"/>
<path d="M698.772 1207.2C755.453 1228.32 818.978 1231.68 877.239 1218.4C912.511 1210.4 945.853 1196.32 974.807 1176.96C994.11 1164.16 1011.66 1149.12 1026.75 1132.32C1062.9 1092.32 1085.54 1043.2 1102.03 990.08C1105.89 977.28 1109.58 964.48 1112.56 951.68C1123.09 908 1128.53 864.96 1133.62 824.8C1140.29 772.64 1146.61 724.64 1170.12 679.68C1175.38 669.76 1181.35 659.84 1188.55 650.24C1214.17 615.36 1251.19 587.84 1292.78 562.24C1339.11 533.6 1391.23 506.72 1434.92 478.56C1440.89 474.72 1446.68 470.88 1452.3 467.04C1493.89 438.24 1529.33 406.72 1556.01 370.08C1577.24 340.96 1592.86 308 1597.77 269.76C1600.4 249.28 1599.7 228 1598.3 206.56C1595.49 162.24 1589.88 116 1613.21 76.4797C1642.87 26.8797 1707.45 5.75966 1769.04 4.15966C1777.64 3.99966 1786.07 3.99968 1794.49 4.47968C1863.45 8.31968 1928.38 30.0797 1994.71 41.7597C2011.39 44.7997 2028.23 47.0396 2045.08 48.6396C2138.26 57.7596 2233.2 46.0796 2317.78 16.6396C2402.01 -12.8004 2474.49 -59.6804 2529.94 -113.44" stroke="#003499" stroke-width="1.6" stroke-miterlimit="10"/>
<path d="M689.822 1203.84C747.205 1224.64 811.432 1226.88 869.341 1211.84C904.438 1202.88 937.253 1187.52 965.331 1167.36C984.107 1153.92 1000.78 1138.08 1014.82 1120.96C1048.69 1079.68 1068.16 1029.76 1084.31 976.16C1088.17 963.2 1091.85 950.24 1095.36 937.44C1106.95 893.6 1115.02 851.2 1122.91 812.64C1133.27 762.56 1143.45 717.76 1169.77 675.68C1175.56 666.4 1182.23 657.28 1189.77 648.16C1217.32 615.52 1255.4 589.6 1297.7 564.48C1344.9 536.48 1397.19 508.48 1439.49 478.72C1445.1 474.72 1450.72 470.72 1456.16 466.4C1495.64 435.84 1526.88 403.2 1550.04 365.76C1568.47 336.16 1581.63 303.04 1584.61 264.8C1586.19 244.32 1584.61 223.04 1582.33 201.76C1577.94 157.6 1570.4 110.88 1593.91 70.88C1622.87 21.44 1687.44 0.959962 1748.51 -1.12004C1756.93 -1.44004 1765.53 -1.44008 1773.78 -0.960077C1842.22 2.07992 1906.8 21.7599 1972.43 31.5199C1988.92 33.9199 2005.59 35.8399 2022.09 36.9599C2114.04 43.3599 2207.05 28.7999 2287.77 -3.20012C2368.14 -35.2001 2434.65 -84.3201 2482.91 -136.96" stroke="#003499" stroke-width="1.6" stroke-miterlimit="10"/>
<path d="M680.873 1200.48C738.958 1220.96 803.887 1222.08 861.621 1205.44C896.542 1195.36 928.831 1179.04 956.03 1157.76C974.281 1143.52 990.074 1127.2 1003.24 1109.44C1034.82 1066.88 1050.97 1016.16 1066.94 962.08C1070.8 948.96 1074.66 936 1078.34 923.2C1090.8 879.36 1101.68 837.44 1112.39 800.48C1126.25 752.32 1140.46 710.72 1169.42 671.68C1175.91 663.04 1182.93 654.56 1191.18 646.08C1220.48 615.68 1259.79 591.36 1302.96 566.72C1351.22 539.36 1403.69 510.24 1444.4 478.88C1449.84 474.72 1455.1 470.4 1460.19 465.92C1497.57 433.6 1524.42 399.68 1544.07 361.76C1559.69 331.68 1570.4 298.24 1571.45 260.16C1571.98 239.68 1569.52 218.4 1566.54 197.12C1560.39 153.12 1551.27 105.92 1574.78 65.5995C1603.39 16.4795 1667.61 -3.68048 1728.16 -6.08048C1736.58 -6.40048 1745 -6.40044 1753.25 -6.24044C1821.16 -4.00044 1885.39 13.5995 1950.32 21.4395C1966.64 23.3595 1982.96 24.7995 1999.45 25.4395C2090.18 29.1195 2181.08 11.8396 2258.11 -22.8804C2334.8 -57.4404 2395.34 -108.8 2436.23 -160.32" stroke="#003499" stroke-width="1.6" stroke-miterlimit="10"/>
<path d="M671.923 1197.12C730.71 1217.28 796.341 1217.12 853.724 1198.88C888.469 1187.84 920.232 1170.4 946.554 1148C964.103 1133.12 979.194 1116.16 991.478 1097.92C1020.61 1053.92 1033.59 1002.72 1049.39 948C1053.25 934.72 1057.11 921.76 1061.14 908.8C1074.66 864.8 1087.99 823.68 1101.68 788.16C1119.23 742.08 1137.3 703.68 1169.07 667.52C1176.09 659.52 1183.81 651.68 1192.41 643.84C1223.47 615.68 1264 592.96 1307.87 568.8C1357.01 541.92 1409.83 511.84 1448.96 478.88C1454.23 474.4 1459.32 469.92 1464.05 465.28C1499.33 431.36 1521.96 396.16 1538.11 357.6C1550.74 327.04 1559.17 293.44 1558.11 255.36C1557.59 234.88 1554.25 213.6 1550.39 192.48C1542.49 148.64 1531.79 100.96 1555.3 60.16C1583.38 11.2 1647.43 -8.32002 1707.45 -11.2C1715.87 -11.68 1724.12 -11.6799 1732.37 -11.5199C1799.58 -10.0799 1863.63 5.60004 1927.86 11.36C1944 12.8 1960.14 13.6 1976.46 13.76C2065.96 14.72 2154.93 -5.43994 2228.11 -42.7199C2300.93 -79.8399 2355.51 -133.44 2389.2 -183.84" stroke="#003499" stroke-width="1.6" stroke-miterlimit="10"/>
<path d="M663.149 1193.92C722.462 1213.76 788.97 1212.48 846.002 1192.64C880.572 1180.64 911.808 1162.08 937.253 1138.56C954.275 1123.04 968.489 1105.44 979.72 1086.56C1006.57 1041.28 1016.4 989.28 1032.01 934.08C1035.7 920.8 1039.91 907.52 1044.12 894.56C1058.51 850.56 1074.66 809.92 1091.15 776C1112.39 731.84 1134.15 696.8 1168.72 663.68C1176.26 656.32 1184.51 649.12 1193.81 641.92C1226.62 616 1268.57 594.72 1313.14 571.36C1363.15 545.12 1416.32 514.08 1453.88 479.2C1458.96 474.56 1463.7 469.76 1468.26 464.96C1501.43 429.28 1519.86 392.96 1532.32 353.76C1542.14 322.88 1547.93 288.96 1545.13 251.04C1543.55 230.56 1539.34 209.44 1534.6 188.16C1525.12 144.32 1512.66 96.4798 1536 55.1998C1563.73 6.55979 1627.43 -12.6403 1686.92 -15.8403C1695.16 -16.3203 1703.41 -16.4801 1711.66 -16.4801C1778.34 -16.0001 1842.04 -2.24021 1905.57 1.59979C1921.54 2.55979 1937.51 2.87985 1953.48 2.55985C2041.74 0.799845 2128.78 -22.2401 2198.1 -61.9201C2267.24 -101.6 2315.67 -157.44 2342.35 -206.72" stroke="#003499" stroke-width="1.6" stroke-miterlimit="10"/>
<path d="M654.2 1190.56C714.215 1210.08 781.249 1207.68 838.281 1186.08C872.676 1173.12 903.386 1153.28 927.953 1128.96C944.273 1112.64 957.785 1094.4 968.139 1075.04C992.706 1028.48 999.199 975.84 1014.64 920C1018.33 906.56 1022.54 893.28 1027.1 880.32C1042.37 836.16 1061.32 796.16 1080.62 763.84C1105.54 721.76 1131.16 689.76 1168.36 659.68C1176.61 653.12 1185.39 646.4 1195.04 639.84C1229.78 616.16 1272.78 596.48 1318.23 573.6C1369.12 548 1422.64 515.84 1458.44 479.36C1463.18 474.56 1467.74 469.44 1472.13 464.48C1503.19 427.04 1517.4 389.6 1526.35 349.76C1533.37 318.4 1536.7 284.32 1531.97 246.4C1529.33 225.92 1524.24 204.8 1518.8 183.68C1507.57 140 1493.54 91.68 1516.87 49.92C1544.07 1.59999 1607.6 -17.12 1666.56 -20.8C1674.81 -21.28 1682.88 -21.6 1690.95 -21.6C1757.11 -21.92 1820.46 -10.2399 1883.46 -8.31995C1899.25 -7.83995 1915.05 -8.00003 1930.84 -8.80003C2017.88 -13.28 2102.81 -39.2001 2168.44 -81.4401C2233.72 -123.68 2276.19 -181.76 2295.67 -229.92" stroke="#003499" stroke-width="1.6" stroke-miterlimit="10"/>
<path d="M645.25 1187.2C705.967 1206.4 773.704 1202.88 830.385 1179.68C864.604 1165.76 894.787 1144.8 918.477 1119.36C934.271 1102.4 947.081 1083.52 956.381 1063.68C978.668 1015.84 982.002 962.4 997.093 906.08C1000.78 892.48 1005.17 879.04 1009.9 866.08C1026.22 821.76 1047.81 782.56 1069.92 751.52C1098.35 711.36 1127.83 682.72 1168.01 655.52C1176.79 649.6 1186.26 643.52 1196.27 637.6C1232.77 616.16 1276.99 598.08 1323.14 575.68C1374.91 550.56 1428.78 517.44 1463 479.36C1467.56 474.24 1471.95 469.12 1475.81 463.68C1504.77 424.64 1514.77 385.92 1520.03 345.44C1524.24 313.6 1525.12 279.2 1518.45 241.44C1514.77 220.96 1508.8 199.84 1502.48 178.72C1489.5 135.2 1473.88 86.4002 1497.22 44.3202C1523.89 -3.8398 1587.42 -22.0797 1645.68 -26.0797C1653.75 -26.7197 1662 -27.0398 1669.9 -27.1998C1735.53 -28.3198 1798.52 -18.5597 1860.82 -18.7197C1876.44 -18.7197 1892.06 -19.3599 1907.67 -20.6399C1993.49 -27.8399 2076.49 -56.4799 2138.26 -101.44C2199.68 -146.24 2236.35 -206.56 2248.46 -253.6" stroke="#003499" stroke-width="1.6" stroke-miterlimit="10"/>
<path d="M636.476 1183.84C697.895 1202.72 766.333 1198.08 822.839 1173.12C856.882 1158.24 886.539 1136.16 909.176 1109.6C924.268 1092 936.376 1072.48 944.799 1052C964.804 1002.88 964.804 948.64 979.72 891.84C983.405 878.08 987.793 864.64 992.882 851.68C1010.08 807.36 1034.47 768.64 1059.39 739.2C1091.5 701.12 1124.84 675.68 1167.66 651.36C1177.14 646.08 1186.97 640.8 1197.67 635.36C1235.93 616.16 1281.38 599.68 1328.41 577.92C1381.05 553.44 1435.27 519.2 1467.91 479.52C1472.3 474.24 1476.34 468.8 1480.02 463.2C1506.7 422.4 1512.66 382.56 1514.42 341.44C1515.82 309.28 1514.07 274.56 1505.47 236.8C1500.73 216.32 1493.89 195.2 1486.69 174.24C1471.95 130.88 1454.75 81.7599 1478.09 39.0399C1504.41 -8.80008 1567.59 -26.5602 1625.32 -31.0402C1633.39 -31.6802 1641.47 -32.16 1649.36 -32.32C1714.47 -34.24 1777.12 -26.5602 1838.71 -28.6402C1854.15 -29.1202 1869.59 -30.2401 1885.04 -32.1601C1969.62 -41.9201 2050.69 -73.6 2108.6 -121.12C2166.34 -168.48 2196.87 -231.04 2201.78 -276.96" stroke="#003499" stroke-width="1.6" stroke-miterlimit="10"/>
<path d="M627.526 1180.48C689.647 1199.04 758.787 1193.12 814.942 1166.72C848.986 1150.88 877.94 1127.52 899.7 1100.16C914.265 1081.92 925.496 1061.6 932.866 1040.64C950.59 990.24 947.431 935.36 961.997 877.92C965.506 864 970.244 850.4 975.509 837.44C993.759 792.96 1020.78 754.88 1048.33 727.04C1084.13 690.88 1121.16 668.64 1166.96 647.52C1176.96 642.88 1187.49 638.24 1198.55 633.44C1238.73 616.48 1285.24 601.6 1332.97 580.32C1386.49 556.48 1440.89 521.28 1472.13 479.84C1476.34 474.24 1480.2 468.64 1483.53 462.88C1508.1 420.32 1509.85 379.36 1508.1 337.6C1506.7 304.96 1502.48 270.08 1491.96 232.32C1486.16 211.84 1478.44 190.88 1470.37 169.76C1454.05 126.56 1435.1 76.9597 1458.44 33.9197C1484.23 -13.6003 1547.23 -30.8804 1604.44 -35.8404C1612.34 -36.4804 1620.41 -37.1204 1628.31 -37.4404C1692.88 -40.1604 1755.18 -34.5603 1816.07 -38.5603C1831.34 -39.5203 1846.61 -41.2802 1861.7 -43.5202C1944.88 -56.0002 2024.2 -90.5602 2078.24 -140.48C2132.12 -190.4 2156.69 -255.2 2154.4 -300" stroke="#004CE0" stroke-width="1.6" stroke-miterlimit="10"/>
<path d="M618.576 1177.12C681.399 1195.36 751.241 1188.32 807.22 1160.16C841.089 1143.2 869.517 1118.88 890.399 1090.4C904.263 1071.36 914.791 1050.56 921.284 1029.12C936.727 977.28 930.234 921.76 944.799 864C948.309 849.92 953.047 836.32 958.662 823.2C977.79 778.72 1007.62 741.12 1037.98 714.88C1077.29 680.8 1118.35 661.76 1166.79 643.52C1177.31 639.52 1188.55 635.52 1200.13 631.36C1242.07 616.64 1289.8 603.36 1338.41 582.56C1392.81 559.2 1447.56 523.04 1477.21 480C1481.25 474.24 1484.76 468.32 1487.74 462.4C1510.21 418.24 1507.75 375.84 1502.31 333.6C1498.1 300.48 1491.43 265.44 1478.97 227.84C1472.13 207.36 1463.53 186.4 1454.75 165.44C1436.68 122.24 1416.15 72.3198 1439.49 28.7998C1464.93 -18.5602 1527.58 -35.3603 1584.26 -40.6403C1592.16 -41.4403 1600.05 -41.9202 1607.95 -42.4002C1672 -45.9202 1733.95 -42.4001 1794.14 -48.3201C1809.23 -49.7601 1824.32 -52.0001 1839.24 -54.7201C1921.19 -69.9201 1998.4 -107.36 2048.76 -159.84C2098.95 -212.32 2117.38 -279.36 2107.9 -323.04" stroke="#004CE0" stroke-width="1.6" stroke-miterlimit="10"/>
<path d="M609.627 1173.92C673.152 1191.68 743.696 1183.68 799.324 1153.92C833.017 1136 860.919 1110.56 880.924 1080.96C894.26 1061.28 903.912 1039.84 909.527 1017.76C922.689 964.64 913.037 908.48 927.251 850.08C930.761 835.84 935.674 822.08 941.465 809.12C961.646 764.48 993.935 727.68 1027.28 702.88C1070.27 670.72 1115.02 655.04 1166.43 639.68C1177.67 636.32 1189.25 632.96 1201.36 629.6C1245.05 617.12 1294.19 605.44 1343.32 585.12C1398.6 562.4 1453.7 525.12 1481.78 480.48C1485.46 474.56 1488.8 468.32 1491.6 462.08C1511.96 416.16 1505.47 372.64 1496.34 329.76C1489.32 296.32 1480.02 260.96 1465.63 223.36C1457.74 202.72 1448.26 181.92 1438.61 160.96C1418.78 117.92 1396.67 67.6803 1420.01 23.6803C1444.93 -23.3597 1507.4 -39.6799 1563.55 -45.4399C1571.45 -46.2399 1579.17 -46.8797 1587.07 -47.5197C1650.59 -51.9997 1712.19 -50.2399 1771.68 -58.2399C1786.59 -60.1599 1801.51 -62.8799 1816.25 -66.2399C1896.97 -84.1599 1972.25 -124.32 2018.76 -179.52C2065.08 -234.56 2077.54 -303.84 2061.05 -346.4" stroke="#004CE0" stroke-width="1.6" stroke-miterlimit="10"/>
<path d="M600.853 1170.56C664.904 1188 736.15 1178.88 791.778 1147.36C825.295 1128.48 852.671 1101.92 871.798 1071.2C884.433 1050.88 893.383 1028.8 897.945 1006.24C908.825 951.84 895.839 894.88 909.878 836C913.212 821.6 918.301 807.84 924.443 794.72C945.501 750.08 980.598 713.76 1016.75 690.56C1063.43 660.48 1112.03 647.84 1166.08 635.52C1177.84 632.8 1190.12 630.08 1202.76 627.36C1248.21 617.12 1298.57 607.04 1348.59 587.36C1404.74 565.28 1460.19 526.88 1486.69 480.64C1490.2 474.4 1493.36 468.16 1495.82 461.6C1514.07 414.08 1503.36 369.28 1490.55 325.76C1480.72 291.84 1468.97 256.16 1452.65 218.72C1443.7 198.08 1433.34 177.28 1422.81 156.48C1401.41 113.6 1377.54 62.8798 1400.88 18.3998C1425.45 -28.3202 1487.57 -44.3202 1543.2 -50.4002C1550.92 -51.2002 1558.64 -52.0003 1566.36 -52.6403C1629.36 -57.9203 1690.6 -58.2402 1749.39 -68.1602C1764.13 -70.7202 1778.87 -73.7602 1793.26 -77.6002C1872.75 -98.2402 1946.11 -141.28 1988.75 -199.04C2031.39 -256.64 2037.88 -328.16 2014.02 -369.6" stroke="#0057FF" stroke-width="1.6" stroke-miterlimit="10"/>
<path d="M591.903 1167.2C656.656 1184.32 728.604 1173.92 783.881 1140.96C817.223 1121.12 844.072 1093.28 862.322 1061.76C874.431 1040.64 882.503 1017.92 886.188 994.88C894.786 939.2 878.642 881.6 892.33 822.08C895.664 807.52 900.753 793.76 907.246 780.64C929.357 735.84 967.085 700.16 1006.04 678.56C1056.41 650.4 1108.7 641.12 1165.56 631.84C1178.02 629.76 1190.65 627.68 1203.81 625.6C1251.19 617.6 1302.61 609.12 1353.32 589.92C1410.53 568.32 1466.16 528.96 1491.08 481.12C1494.41 474.72 1497.22 468.16 1499.5 461.44C1515.65 412.16 1500.73 366.24 1484.41 322.08C1471.77 287.68 1457.39 251.84 1439.31 214.4C1429.48 193.44 1418.25 172.64 1406.85 151.84C1383.68 109.12 1358.24 57.9201 1381.58 13.1201C1405.79 -33.4399 1467.56 -48.7999 1522.66 -55.3599C1530.39 -56.3199 1538.11 -57.1198 1545.65 -57.9198C1607.95 -63.9998 1668.84 -66.4 1727.1 -78.24C1741.67 -81.28 1756.23 -84.7998 1770.45 -89.1198C1848.71 -112.48 1919.96 -158.4 1958.92 -218.56C1997.7 -278.72 1998.22 -352.48 1967.16 -392.8" stroke="#0057FF" stroke-width="1.6" stroke-miterlimit="10"/>
<path d="M582.953 1163.84C648.408 1180.64 721.058 1169.12 776.16 1134.4C809.326 1113.6 835.649 1084.64 853.021 1052C864.428 1030.24 871.974 1006.88 874.606 983.2C880.923 926.24 861.445 867.84 875.132 807.84C878.467 793.12 883.731 779.2 890.399 766.08C913.388 721.28 953.924 686.24 995.689 666.08C1049.56 640 1105.89 633.76 1165.56 627.52C1178.54 626.08 1191.88 624.8 1205.57 623.2C1254.7 617.44 1307.35 610.56 1358.94 591.84C1417.02 570.88 1473 530.56 1496.34 480.96C1499.5 474.4 1501.96 467.52 1503.89 460.64C1517.93 409.6 1498.8 362.56 1478.79 317.76C1463.35 282.88 1446.51 246.88 1426.5 209.44C1415.44 188.8 1403.34 168.16 1391.23 147.36C1366.31 104.8 1339.28 53.2797 1362.62 7.83973C1386.31 -38.4003 1447.91 -53.4402 1502.48 -60.3202C1510.03 -61.2802 1517.75 -62.2404 1525.3 -63.0404C1587.07 -69.9204 1647.61 -74.2403 1705.17 -88.1603C1719.56 -91.6803 1733.95 -95.6802 1747.98 -100.48C1825.02 -126.56 1894.34 -175.36 1929.61 -238.08C1964.71 -300.8 1959.09 -376.64 1920.84 -416" stroke="#0057FF" stroke-width="1.6" stroke-miterlimit="10"/>
<path d="M574.179 1160.48C640.336 1176.96 713.688 1164.32 768.439 1128C801.43 1106.24 827.226 1076.16 843.546 1042.4C854.426 1020 861.094 996 862.849 971.84C866.885 913.44 844.248 854.4 857.584 793.92C860.918 779.04 866.183 765.12 873.202 751.84C897.243 706.88 940.412 672.48 984.985 653.92C1042.54 629.76 1102.56 626.72 1165.03 623.52C1178.54 622.72 1192.58 622.08 1206.62 621.12C1257.51 617.6 1311.38 612.32 1363.85 594.24C1422.82 573.92 1479.15 532.48 1500.73 481.12C1503.71 474.24 1505.99 467.2 1507.57 460C1519.51 407.36 1496.17 358.88 1472.65 313.44C1454.4 278.08 1434.92 241.92 1412.99 204.64C1400.88 184 1387.89 163.36 1374.91 142.72C1348.23 100.16 1319.63 48.3201 1342.79 2.56014C1366.13 -43.3599 1427.38 -57.92 1481.43 -65.44C1488.97 -66.4 1496.52 -67.5198 1504.06 -68.4798C1565.31 -76.1598 1625.5 -82.5599 1682.53 -98.3999C1696.74 -102.4 1710.96 -107.04 1724.82 -112.32C1800.63 -141.12 1868.02 -192.64 1899.43 -258.08C1930.66 -323.36 1919.08 -401.44 1873.63 -439.68" stroke="#0057FF" stroke-width="1.6" stroke-miterlimit="10"/>
<path d="M565.229 1157.12C632.089 1173.28 706.142 1159.52 760.542 1121.44C793.357 1098.72 818.627 1067.52 834.07 1032.8C844.423 1009.76 850.214 984.96 850.916 960.32C852.671 900.64 826.699 840.96 839.86 779.84C843.019 764.96 848.635 750.72 855.829 737.6C880.748 692.48 926.725 658.72 974.105 641.6C1035.35 619.52 1099.22 619.68 1164.5 619.36C1178.72 619.36 1193.11 619.2 1207.85 618.88C1260.67 617.6 1315.59 613.92 1368.77 596.32C1428.61 576.48 1485.11 534.08 1505.29 481.12C1507.92 474.08 1510.03 466.88 1511.43 459.36C1521.26 404.96 1493.89 355.36 1466.69 309.28C1445.63 273.44 1423.69 237.12 1399.83 199.84C1386.67 179.36 1372.8 158.56 1358.94 137.92C1330.69 95.5199 1300.5 43.3599 1323.49 -3.04006C1346.48 -48.6401 1407.55 -62.88 1460.89 -70.72C1468.44 -71.84 1475.81 -72.96 1483.36 -73.92C1544.07 -82.4 1603.91 -90.8802 1660.24 -108.64C1674.46 -113.12 1688.32 -118.24 1701.83 -124C1776.41 -155.52 1841.87 -209.92 1869.42 -277.76C1896.97 -345.6 1879.42 -425.92 1826.78 -463.04" stroke="#0057FF" stroke-width="1.6" stroke-miterlimit="10"/>
<path d="M556.28 1153.92C623.841 1169.76 698.597 1154.72 752.821 1115.2C785.461 1091.36 810.204 1059.04 824.769 1023.36C834.42 999.52 839.509 974.24 839.334 948.96C838.807 888 809.677 827.52 822.488 765.92C825.646 750.88 831.262 736.64 838.983 723.36C864.954 678.24 913.563 644.96 963.576 629.44C1028.33 609.28 1096.24 612.64 1164.15 615.52C1178.89 616.16 1193.99 616.64 1209.08 616.96C1263.65 617.92 1319.98 615.84 1373.86 598.72C1434.57 579.52 1491.43 536 1510.03 481.44C1512.49 474.24 1514.24 466.72 1515.29 459.04C1523.02 402.88 1491.43 352.16 1460.54 305.44C1436.68 269.28 1412.11 232.64 1386.49 195.36C1372.28 174.88 1357.54 154.24 1342.97 133.6C1312.96 91.36 1281.2 38.72 1304.19 -8.00002C1326.83 -53.44 1387.54 -67.04 1440.36 -75.36C1447.73 -76.48 1455.1 -77.5999 1462.47 -78.8799C1522.66 -88.3199 1582.15 -98.56 1637.78 -118.4C1651.82 -123.36 1665.51 -128.96 1678.84 -135.2C1752.2 -169.44 1815.55 -226.72 1839.41 -297.12C1863.1 -367.52 1839.59 -450.08 1779.75 -486.08" stroke="#0057FF" stroke-width="1.6" stroke-miterlimit="10"/>
<path d="M547.33 1150.56C615.593 1166.08 690.875 1149.92 744.924 1108.64C777.388 1083.84 801.605 1050.4 815.293 1013.6C824.418 989.12 828.629 963.2 827.576 937.44C824.769 875.2 792.304 814.08 805.115 751.84C808.273 736.64 814.064 722.24 821.961 709.12C848.81 663.84 900.051 631.36 953.047 617.28C1021.49 599.2 1093.08 605.76 1163.8 611.52C1179.24 612.8 1194.69 613.92 1210.48 614.88C1266.81 618.08 1324.37 617.6 1378.94 600.96C1440.54 582.4 1497.75 537.92 1514.77 481.6C1517.05 474.08 1518.63 466.4 1519.33 458.56C1524.95 400.8 1489.15 348.64 1454.75 301.44C1428.08 264.8 1401.06 228 1373.33 190.72C1358.06 170.24 1342.62 149.6 1327 128.96C1295.24 86.8796 1261.9 33.9195 1284.89 -13.4405C1307 -58.5605 1367.54 -71.8404 1419.83 -80.4804C1427.2 -81.7604 1434.57 -82.8805 1441.77 -84.1605C1501.43 -94.4005 1560.57 -106.72 1615.5 -128.48C1629.36 -133.92 1642.87 -140 1656.03 -146.72C1728.16 -183.68 1789.57 -243.681 1809.58 -316.801C1829.58 -389.921 1799.93 -474.56 1732.89 -509.44" stroke="#0057FF" stroke-width="1.6" stroke-miterlimit="10"/>
<path d="M538.556 1147.2C607.345 1162.4 683.505 1145.12 737.378 1102.24C791.252 1059.36 821.259 991.84 815.995 926.08C810.906 862.56 775.107 800.64 787.742 737.92C801.43 669.92 870.394 621.28 942.518 605.12C1014.64 588.96 1090.1 598.72 1163.63 607.52C1237.15 616.32 1313.31 623.68 1384.21 603.36C1455.1 583.04 1519.51 527.2 1523.54 458.24C1527.05 398.72 1487.04 345.44 1448.96 297.6C1403.16 240 1357.18 182.24 1311.38 124.64C1277.87 82.5598 1242.94 29.2798 1265.93 -18.4002C1287.52 -63.2002 1347.88 -76.0001 1399.65 -85.1201C1480.9 -99.3601 1562.67 -118.4 1633.39 -157.92C1704.29 -197.6 1763.78 -260.48 1779.92 -336.16C1796.07 -411.84 1760.44 -498.72 1686.22 -532.48" stroke="#0057FF" stroke-width="1.6" stroke-miterlimit="10"/>
<path d="M578.917 1151.84C644.548 1160 712.811 1137.28 758.261 1093.76C803.711 1050.08 825.12 986.24 815.118 920.8C805.642 858.56 768.966 796 779.846 732.32C791.778 663.52 858.988 612.16 931.287 594.72C1001.66 577.76 1075.89 587.36 1148.18 594.56C1223.29 602.08 1301.03 607.2 1373.5 586.4C1443.87 566.08 1508.28 512.16 1513.54 443.84C1518.1 384.96 1479.32 331.52 1441.59 283.84C1396.49 226.88 1351.04 170.08 1305.94 113.12C1272.78 71.0397 1238.56 17.5998 1261.55 -30.0802C1283.31 -75.0402 1343.5 -88.4803 1395.44 -97.7603C1475.46 -111.84 1556.01 -130.24 1626.02 -169.28C1696.04 -208.32 1754.65 -270.72 1770.45 -345.44C1786.24 -420.16 1751.5 -505.92 1678.85 -540.16" stroke="#0057FF" stroke-width="1.6" stroke-miterlimit="10"/>
<path d="M619.103 1156.64C681.4 1157.76 741.766 1129.76 778.793 1085.44C815.82 1041.12 828.63 980.8 813.889 915.84C800.026 854.88 762.473 791.84 771.773 727.04C782.127 657.44 847.406 603.36 920.056 584.64C988.846 566.88 1061.67 576.16 1132.74 581.92C1209.43 588.16 1288.57 591.04 1362.8 569.76C1432.64 549.76 1497.22 497.28 1503.54 429.76C1508.98 371.52 1471.42 317.92 1434.22 270.4C1390 214.08 1344.73 158.24 1300.5 101.92C1267.51 59.6799 1234.17 6.07988 1256.98 -41.6001C1278.74 -86.8801 1338.76 -100.96 1390.88 -110.4C1469.67 -124.48 1549.16 -142.24 1618.13 -180.64C1687.44 -219.2 1744.83 -280.96 1760.44 -354.88C1776.06 -428.8 1742.02 -513.12 1670.95 -547.84" stroke="#0057FF" stroke-width="1.6" stroke-miterlimit="10"/>
<path d="M659.464 1161.44C718.426 1155.68 771.071 1122.24 799.675 1077.28C828.454 1032.32 832.666 975.68 813.012 910.88C794.937 851.2 755.98 787.52 763.876 721.76C772.299 651.2 835.824 594.56 908.825 574.4C975.86 555.84 1047.63 564.64 1117.3 568.96C1195.56 573.76 1276.11 574.56 1352.1 552.96C1421.41 533.12 1486.16 482.4 1493.53 415.68C1500.03 358.08 1463.53 304.32 1426.85 256.96C1383.51 201.12 1338.58 146.4 1295.06 90.7199C1262.25 48.4799 1229.78 -5.28008 1252.6 -52.9601C1274.36 -98.4001 1334.37 -113.12 1386.67 -122.88C1464.23 -136.96 1542.67 -154.08 1610.58 -191.68C1679.02 -229.6 1735.53 -290.88 1750.79 -363.84C1766.06 -436.8 1732.89 -520 1663.4 -555.04" stroke="#0057FF" stroke-width="1.6" stroke-miterlimit="10"/>
<path d="M699.825 1166.08C755.453 1153.28 800.201 1114.56 820.557 1068.8C840.914 1023.2 836.702 970.24 812.134 905.76C790.023 847.52 749.838 783.2 756.155 716.16C762.824 644.8 824.594 585.6 897.946 564C963.401 544.8 1033.77 552.96 1102.38 556C1182.23 559.52 1264.18 558.08 1341.92 536C1410.71 516.32 1475.46 467.2 1484.06 401.28C1491.6 344.32 1456.33 290.4 1420.18 243.2C1377.72 188 1332.97 134.24 1290.33 79.1999C1257.69 36.7999 1226.1 -16.9601 1248.91 -64.6401C1270.85 -110.24 1330.51 -125.76 1382.98 -135.52C1459.32 -149.76 1536.7 -166.08 1603.56 -203.04C1671.12 -240.48 1726.75 -301.28 1741.67 -373.12C1756.58 -444.96 1724.3 -527.04 1656.38 -562.56" stroke="#0057FF" stroke-width="1.6" stroke-miterlimit="10"/>
<path d="M740.186 1170.88C792.655 1151.04 829.331 1107.2 841.44 1060.48C853.373 1014.4 840.913 964.96 811.257 900.64C785.11 843.68 743.52 778.72 748.258 710.72C753.347 638.56 813.187 576.8 886.714 553.76C950.59 533.92 1019.73 545.28 1086.94 543.2C1168.36 540.64 1251.89 541.76 1331.21 519.2C1399.48 499.68 1464.4 452.16 1474.06 387.2C1482.48 330.88 1448.44 276.8 1412.81 229.76C1371.22 175.2 1326.65 122.56 1284.89 67.9998C1252.42 25.5998 1221.71 -28.4802 1244.52 -76.1602C1266.46 -122.08 1326.12 -138.24 1378.77 -148.16C1453.88 -162.4 1530.21 -178.08 1596.02 -214.4C1662.7 -251.2 1717.28 -311.52 1732.19 -382.56C1746.93 -453.6 1715.35 -534.24 1649.01 -570.24" stroke="#0057FF" stroke-width="1.6" stroke-miterlimit="10"/>
<path d="M780.547 1175.52C829.683 1148.64 858.637 1099.68 862.147 1052.16C865.657 1005.6 844.95 959.68 810.379 895.68C780.372 840.16 737.203 774.56 740.362 705.44C743.696 632.48 801.781 568.16 875.659 543.68C937.78 523.2 1005.87 534.24 1071.67 530.4C1154.5 525.6 1239.61 525.44 1320.68 502.4C1388.42 483.2 1453.52 437.28 1464.23 372.96C1473.71 317.12 1440.71 263.04 1405.62 216C1364.91 162.08 1320.51 110.4 1279.8 56.4801C1247.51 13.9201 1217.68 -40.1601 1240.31 -87.8401C1262.25 -133.92 1321.74 -150.72 1374.73 -160.96C1448.61 -175.2 1523.89 -190.08 1588.82 -225.92C1654.8 -262.24 1708.33 -321.92 1722.89 -392C1737.46 -462.08 1706.57 -541.6 1641.99 -577.92" stroke="#0057FF" stroke-width="1.6" stroke-miterlimit="10"/>
<path d="M820.733 1180.32C866.534 1146.56 887.768 1092.32 882.854 1043.84C878.116 996.8 849.161 954.4 809.327 890.56C775.458 836.32 730.886 770.08 732.465 699.84C734.044 626.08 790.199 559.2 864.604 533.28C925.145 512.16 992.18 522.72 1056.41 517.44C1140.81 510.56 1227.33 508.8 1310.16 485.6C1377.37 466.56 1442.47 422.24 1454.4 358.72C1464.93 303.52 1433.17 249.12 1398.42 202.4C1358.59 149.12 1314.54 98.3997 1274.53 45.1197C1242.42 2.55972 1213.46 -51.6803 1236.1 -99.3603C1258.04 -145.6 1317.53 -163.2 1370.52 -173.44C1443.17 -187.68 1517.23 -201.92 1581.28 -237.12C1646.38 -272.8 1699.03 -332 1713.24 -401.28C1727.45 -470.56 1697.45 -548.64 1634.45 -585.44" stroke="#0057FF" stroke-width="1.6" stroke-miterlimit="10"/>
<path d="M861.094 1184.96C903.561 1144.16 917.073 1084.8 903.736 1035.36C890.926 987.84 853.724 948.96 808.449 885.28C770.896 832.32 724.744 765.6 724.568 694.24C724.568 619.68 778.793 550.24 853.373 522.72C912.335 500.96 978.141 510.72 1040.96 504.32C1126.78 495.52 1215.04 492.16 1299.45 468.48C1366.13 449.6 1431.41 407.04 1444.4 344.32C1455.81 289.76 1425.45 235.2 1391.05 188.64C1352.1 135.84 1308.22 86.2399 1269.09 33.5999C1237.33 -9.12012 1209.08 -63.5202 1231.71 -111.04C1253.83 -157.6 1312.96 -175.68 1366.31 -186.24C1437.73 -200.48 1510.73 -214.08 1573.73 -248.48C1637.96 -283.68 1689.72 -342.24 1703.59 -410.56C1717.45 -478.88 1688.32 -555.84 1626.9 -593.12" stroke="#0057FF" stroke-width="1.6" stroke-miterlimit="10"/>
<path d="M901.455 1189.76C940.588 1141.92 946.554 1077.6 924.619 1027.04C903.736 979.04 858.286 943.68 807.572 880.32C766.333 828.8 718.426 761.28 716.847 688.96C715.092 613.6 767.562 541.76 842.493 512.64C899.7 490.4 964.103 494.4 1026.05 491.68C1114.14 487.68 1203.11 476 1289.27 451.84C1355.43 433.12 1420.88 392.16 1434.92 330.24C1447.38 276.32 1418.08 221.6 1384.21 175.2C1346.13 123.04 1302.61 74.4003 1264.18 22.4003C1232.59 -20.3197 1205.22 -74.8797 1227.68 -122.56C1249.79 -169.28 1308.93 -188 1362.27 -198.88C1432.47 -213.12 1504.41 -226.08 1566.36 -259.84C1629.89 -294.4 1680.42 -352.48 1694.11 -420C1707.8 -487.36 1679.37 -563.04 1619.53 -600.8" stroke="#0057FF" stroke-width="1.6" stroke-miterlimit="10"/>
<path d="M941.816 1194.4C977.79 1139.68 976.211 1069.92 945.501 1018.72C916.547 970.24 862.849 938.24 806.694 875.2C761.77 824.8 712.284 756.96 708.95 683.52C705.616 607.36 756.155 532.96 831.262 502.4C886.89 479.68 950.064 482.56 1010.61 478.72C1100.28 472.96 1190.65 459.52 1278.57 435.04C1344.2 416.48 1409.65 377.28 1424.92 316.16C1438.43 262.88 1410.18 208 1376.84 161.76C1339.64 110.24 1296.29 62.5599 1258.74 11.1999C1227.33 -31.6801 1200.83 -86.24 1223.29 -133.92C1245.4 -180.8 1304.36 -200.32 1358.06 -211.2C1427.03 -225.28 1497.92 -237.6 1558.81 -270.88C1621.46 -304.96 1671.12 -362.4 1684.46 -428.96C1697.8 -495.52 1670.25 -569.92 1611.99 -608" stroke="#0057FF" stroke-width="1.6" stroke-miterlimit="10"/>
<path d="M982.177 1199.2C1014.82 1137.44 1005.69 1062.56 966.208 1010.4C929.182 961.44 867.411 932.8 805.641 870.24C757.208 821.12 705.792 752.64 700.878 678.08C695.789 600.96 744.573 524.48 820.031 492.16C874.08 468.96 936.025 470.72 995.163 465.92C1086.59 458.56 1178.37 443.2 1267.86 418.24C1332.97 400 1398.6 362.24 1414.92 301.92C1429.31 249.28 1402.46 194.24 1369.47 148.16C1333.14 97.2801 1290.15 50.4002 1253.47 -0.159783C1222.24 -43.1998 1196.62 -97.9199 1219.08 -145.44C1241.19 -192.48 1300.15 -212.64 1353.85 -223.84C1421.59 -237.92 1491.43 -249.6 1551.44 -282.24C1613.21 -315.68 1662 -372.64 1674.98 -438.24C1687.97 -503.84 1661.3 -576.96 1604.62 -615.52" stroke="#004CE0" stroke-width="1.6" stroke-miterlimit="10"/>
<path d="M1022.36 1203.84C1051.67 1135.04 1035 1054.88 986.915 1001.92C941.816 952.32 871.974 927.04 804.588 864.96C752.47 816.96 699.474 748.16 692.981 672.48C686.313 594.56 733.167 515.68 808.8 481.6C861.269 457.92 921.811 458.56 979.72 452.8C1072.73 443.52 1165.91 426.56 1257.16 401.12C1321.74 383.04 1387.54 347.04 1404.92 287.52C1420.36 235.52 1394.56 180.32 1362.1 134.4C1326.47 84.1598 1284.01 38.2398 1248.03 -11.6802C1217.15 -54.7202 1192.23 -109.6 1214.69 -157.12C1236.98 -204.48 1295.77 -225.12 1349.64 -236.64C1416.15 -250.72 1484.94 -261.76 1543.9 -293.6C1604.97 -326.56 1652.7 -382.88 1665.33 -447.68C1678.14 -512.32 1652.17 -584.16 1597.07 -623.2" stroke="#004CE0" stroke-width="1.6" stroke-miterlimit="10"/>
<path d="M1062.72 1208.64C1088.7 1132.96 1064.65 1047.36 1007.8 993.6C954.626 943.36 876.712 921.44 803.711 860C748.083 813.12 693.332 743.84 685.085 667.2C676.661 588.48 721.761 507.2 797.745 471.52C848.81 447.52 907.948 446.72 964.629 440C1059.21 428.96 1153.8 410.24 1246.81 384.48C1310.86 366.56 1376.66 332.16 1395.26 273.44C1411.76 222.08 1387.02 166.56 1355.08 120.96C1320.33 71.3597 1278.04 26.3997 1242.95 -22.8803C1212.24 -66.0803 1188.19 -120.96 1210.48 -168.64C1232.77 -216.16 1291.38 -237.6 1345.6 -249.12C1410.88 -263.2 1478.44 -273.6 1536.53 -304.8C1596.72 -337.28 1643.4 -392.96 1656.03 -456.8C1668.49 -520.64 1643.4 -591.2 1589.88 -630.56" stroke="#004CE0" stroke-width="1.6" stroke-miterlimit="10"/>
<path d="M1103.08 1213.44C1125.9 1130.72 1094.14 1039.84 1028.68 985.439C967.437 934.559 881.45 915.999 802.833 855.039C743.696 809.279 687.015 739.679 677.363 661.759C667.361 582.239 710.705 498.719 786.689 461.279C836.175 436.799 894.085 434.719 949.362 427.199C1045.7 414.079 1141.52 393.919 1236.28 367.679C1299.98 349.919 1365.78 317.279 1385.44 259.199C1402.81 208.479 1379.47 152.799 1347.88 107.359C1314.02 58.3995 1272.08 14.3994 1237.68 -34.2406C1207.15 -77.6006 1183.98 -132.641 1206.27 -180.161C1228.56 -227.841 1287.17 -249.921 1341.39 -261.761C1405.44 -275.681 1471.95 -285.441 1528.98 -316.161C1588.3 -348.001 1634.1 -403.361 1646.38 -466.241C1658.66 -529.121 1634.27 -598.401 1582.33 -638.241" stroke="#004CE0" stroke-width="1.6" stroke-miterlimit="10"/>
<path d="M1143.45 1218.08C1162.92 1128.32 1123.62 1032.16 1049.56 976.96C980.247 925.44 886.188 910.08 801.956 849.92C739.309 805.12 680.873 735.2 669.467 656.32C657.885 576 699.474 490.4 775.634 451.04C823.541 426.24 880.046 422.72 934.095 414.4C1032.01 399.36 1129.41 377.6 1225.75 350.88C1288.92 333.44 1354.9 302.24 1375.61 245.12C1394.04 195.04 1371.75 139.2 1340.69 93.7601C1307.7 45.4401 1265.93 2.39989 1232.42 -45.6001C1202.06 -88.9601 1179.77 -144.16 1202.06 -191.68C1224.34 -239.68 1282.78 -262.24 1337.36 -274.4C1400.18 -288.32 1465.63 -297.44 1521.61 -327.52C1580.22 -358.88 1624.97 -413.6 1636.9 -475.52C1648.84 -537.44 1625.32 -605.6 1574.96 -645.92" stroke="#003499" stroke-width="1.6" stroke-miterlimit="10"/>
<path d="M1183.81 1222.88C1199.95 1126.08 1153.1 1024.64 1070.27 968.64C992.882 916.32 890.751 904.32 800.903 844.8C734.746 800.96 674.556 730.72 661.57 650.88C648.233 569.76 688.243 481.92 764.403 440.64C810.906 415.52 866.008 410.4 918.653 401.44C1018.15 384.32 1116.95 360.96 1215.22 334.08C1277.87 316.8 1343.85 287.2 1365.78 230.88C1385.26 181.44 1364.03 125.44 1333.49 80.16C1301.38 32.48 1259.97 -9.60008 1227.33 -56.9601C1197.32 -100.48 1175.74 -155.68 1197.85 -203.2C1220.31 -251.36 1278.57 -274.56 1333.14 -287.04C1394.74 -300.96 1459.14 -309.44 1514.07 -338.72C1571.8 -369.44 1615.67 -423.68 1627.25 -484.64C1638.83 -545.76 1616.2 -612.48 1567.41 -653.28" stroke="#003499" stroke-width="1.6" stroke-miterlimit="10"/>
<path d="M1224.17 1227.52C1236.98 1123.84 1182.58 1016.8 1091.15 960.32C1005.69 907.36 895.664 898.56 800.026 839.84C730.359 796.96 668.413 726.56 653.673 645.6C638.757 563.68 677.012 473.76 753.347 430.56C798.271 405.12 851.969 398.56 903.385 388.64C1004.46 369.28 1104.66 344.64 1204.69 317.28C1266.81 300.16 1332.97 272.32 1355.96 216.8C1376.31 168 1356.31 111.84 1326.3 66.7201C1294.89 19.6801 1254 -21.4399 1222.06 -68.1599C1192.23 -111.84 1171.52 -167.2 1193.63 -214.72C1216.1 -263.04 1274.18 -287.04 1329.11 -299.52C1389.47 -313.28 1452.82 -321.28 1506.87 -349.92C1563.73 -380.16 1606.55 -433.76 1617.95 -493.92C1629.36 -554.08 1607.42 -619.68 1560.22 -660.8" stroke="#003499" stroke-width="1.6" stroke-miterlimit="10"/>
<path d="M1264.35 1232.32C1273.83 1121.6 1211.88 1009.28 1111.86 952C1018.33 898.4 900.226 892.64 798.973 834.72C725.796 792.8 662.096 722.08 645.601 640C629.281 557.12 665.606 465.28 741.941 420.16C785.461 394.4 837.754 386.24 887.943 375.68C990.425 354.08 1092.38 328.16 1193.99 300.32C1255.58 283.36 1321.91 257.12 1345.95 202.4C1367.36 154.08 1348.41 97.9199 1318.93 52.9599C1288.39 6.55994 1247.86 -33.76 1216.62 -79.68C1187.14 -123.52 1167.31 -178.88 1189.25 -226.4C1211.71 -275.04 1269.79 -299.52 1324.72 -312.32C1383.86 -326.08 1446.15 -333.44 1499.15 -361.44C1555.3 -391.04 1597.07 -444.16 1608.12 -503.36C1619.18 -562.56 1598.12 -626.88 1552.67 -668.48" stroke="#003499" stroke-width="1.6" stroke-miterlimit="10"/>
<path d="M1304.71 1236.96C1311.03 1119.2 1241.54 1001.44 1132.74 943.52C1031.14 889.12 904.965 886.56 798.095 829.6C721.409 788.64 655.954 717.76 637.879 634.56C619.805 550.88 654.726 456.96 731.061 409.92C773.177 384 823.891 374.08 872.851 362.88C976.913 338.88 1080.27 311.84 1183.63 283.68C1244.7 266.88 1311.03 242.4 1336.3 188.32C1358.59 140.64 1341.04 84.3199 1311.91 39.5199C1282.25 -6.2401 1242.07 -45.6 1211.53 -90.88C1182.23 -134.72 1163.28 -190.24 1185.21 -237.76C1207.67 -286.56 1265.76 -311.52 1320.86 -324.8C1378.77 -338.4 1439.84 -345.12 1491.96 -372.64C1547.23 -401.76 1588.12 -454.24 1598.82 -512.64C1609.7 -571.04 1589.35 -634.08 1545.48 -676" stroke="#003499" stroke-width="1.6" stroke-miterlimit="10"/>
<path d="M1345.08 1241.76C1348.06 1117.12 1270.85 993.92 1153.45 935.2C1043.77 880.16 909.527 880.64 797.043 824.48C716.671 784.32 649.637 713.28 629.807 629.12C610.153 544.64 643.495 448.8 719.655 399.68C760.367 373.44 809.502 361.92 857.233 349.92C962.699 323.36 1067.64 295.36 1172.75 266.72C1233.29 250.24 1299.8 227.2 1326.12 174.08C1349.46 127.04 1332.97 70.5602 1304.54 25.9202C1275.58 -19.1998 1235.75 -57.5999 1206.09 -102.24C1177.14 -146.24 1158.89 -201.92 1180.65 -249.28C1203.29 -298.24 1261.02 -324 1316.47 -337.28C1373.15 -350.88 1433.17 -356.96 1484.23 -383.68C1538.63 -412.16 1578.47 -464.16 1589 -521.6C1599.53 -579.04 1580.05 -640.8 1537.76 -683.2" stroke="#003499" stroke-width="1.6" stroke-miterlimit="10"/>
<path d="M1385.44 1246.4C1385.09 1114.72 1300.33 986.24 1174.33 926.88C1056.41 871.2 914.265 874.72 796.165 819.52C712.284 780.16 643.319 709.12 622.086 623.68C600.677 538.4 632.615 440.64 708.775 389.28C748.083 362.72 795.639 349.6 842.142 336.96C948.835 307.84 1055.53 278.88 1162.4 249.76C1222.41 233.44 1289.1 212.16 1316.47 159.68C1340.86 113.28 1325.42 56.6398 1297.52 12.1598C1269.44 -32.3202 1229.96 -69.76 1201.18 -113.92C1172.4 -158.08 1155.03 -213.76 1176.79 -261.28C1199.43 -310.4 1257.16 -336.8 1312.61 -350.4C1368.06 -364 1427.03 -369.44 1477.04 -395.52C1530.74 -423.52 1569.52 -474.88 1579.87 -531.52C1590.05 -588 1571.45 -648.48 1530.74 -691.36" stroke="#003499" stroke-width="1.6" stroke-miterlimit="10"/>
</g>
</g>
</g>
<defs>
<clipPath id="clip0_598_71">
<rect width="1920" height="992" fill="white"/>
</clipPath>
<clipPath id="clip1_598_71">
<rect width="1920" height="1280" fill="white" transform="matrix(1 0 0 -1 0 1136)"/>
</clipPath>
</defs>
</svg>
