<svg width="1844" height="728" viewBox="0 0 1844 728" fill="none" xmlns="http://www.w3.org/2000/svg">
<g clip-path="url(#clip0_550_22)">
<path d="M-38 -46.0043C231.588 62.688 376.905 206.04 460.714 323.312C530.578 421.083 529.338 461.077 603.523 534.022C764.512 692.308 1072.9 801.462 1222.37 665.437C1295.99 598.429 1268.76 513.514 1303.97 352.764C1335.66 208.158 1417.57 9.27463 1646.26 -206.871" stroke="#0057FF" stroke-width="1.41844" stroke-miterlimit="10"/>
<path d="M-37.4609 -10.9369C224.758 82.4757 368.622 217.335 452.387 327.087C522.868 419.46 528.599 456.398 607.397 528.089C772.697 678.481 1062.32 783.185 1211.99 656.263C1289.08 590.894 1271.55 507.431 1312.81 347.152C1349.14 206.044 1432.72 10.5616 1657.48 -203.646" stroke="#0057FF" stroke-width="1.41844" stroke-miterlimit="10"/>
<path d="M-36.9214 24.1263C217.923 102.264 360.446 228.665 444.075 330.862C515.319 417.925 527.734 451.725 611.285 522.157C780.532 664.829 1052.19 765.15 1201.63 647.096C1282.37 583.314 1274.23 501.431 1321.67 341.546C1362.5 203.97 1447.9 11.8637 1668.72 -200.395" stroke="#0057FF" stroke-width="1.41844" stroke-miterlimit="10"/>
<path d="M-36.3823 59.1944C211.089 122.057 352.411 240.029 435.763 334.666C507.863 416.482 526.727 447.085 615.193 516.22C788.051 651.371 1042.5 747.388 1191.29 637.923C1275.83 575.735 1276.78 495.499 1330.54 335.934C1375.68 201.925 1463.09 13.1658 1679.95 -197.16" stroke="#0057FF" stroke-width="1.41844" stroke-miterlimit="10"/>
<path d="M-35.8413 94.2582C204.28 141.837 344.542 251.394 427.452 338.417C500.534 415.117 525.64 442.489 619.054 510.289C795.222 638.113 1033.17 729.918 1180.9 628.751C1269.42 568.142 1279.16 489.606 1339.37 330.323C1388.67 199.89 1478.24 14.4637 1691.15 -193.899" stroke="#0057FF" stroke-width="1.41844" stroke-miterlimit="10"/>
<path d="M-35.3018 129.321C197.427 161.624 336.853 262.762 419.141 342.192C493.359 413.834 524.376 437.961 622.942 504.351C802.154 625.073 1024.21 712.743 1170.54 619.583C1263.19 560.592 1281.37 483.742 1348.22 324.711C1401.52 197.849 1493.41 15.7652 1702.38 -190.688" stroke="#0057FF" stroke-width="1.41844" stroke-miterlimit="10"/>
<path d="M-34.7627 164.384C190.592 181.388 329.376 274.082 410.828 345.967C486.35 412.619 523.029 433.511 626.826 498.419C808.861 612.247 1015.58 695.879 1160.18 610.41C1257.12 553.11 1283.48 477.878 1357.07 319.105C1414.23 195.789 1508.6 17.0673 1713.6 -187.447" stroke="#0057FF" stroke-width="1.41844" stroke-miterlimit="10"/>
<path d="M-34.2041 199.452C183.777 201.196 322.153 285.349 402.535 349.742C479.554 411.444 521.624 429.157 630.729 492.487C815.389 599.639 1007.26 679.322 1149.83 601.237C1251.21 545.72 1285.41 472.004 1365.94 313.493C1426.77 193.704 1523.75 18.3839 1724.83 -184.212" stroke="#0057FF" stroke-width="1.41844" stroke-miterlimit="10"/>
<path d="M-33.6841 234.515C176.923 220.984 315.144 296.508 394.204 353.522C472.948 410.288 520.059 424.94 634.598 486.55C821.737 587.245 999.155 663.075 1139.45 592.07C1245.42 538.452 1287.15 466.081 1374.77 307.882C1439.18 191.577 1538.92 19.6666 1736.09 -180.976" stroke="#0057FF" stroke-width="1.41844" stroke-miterlimit="10"/>
<path d="M-33.145 269.564C170.093 240.758 308.411 307.508 385.891 357.282C466.546 409.092 518.454 420.772 638.481 480.603C827.944 575.041 991.256 647.11 1129.09 582.882C1239.74 531.32 1288.76 460.086 1383.62 302.256C1451.47 189.38 1554.1 20.954 1747.28 -177.755" stroke="#0057FF" stroke-width="1.41844" stroke-miterlimit="10"/>
<path d="M-32.604 304.646C163.285 260.561 301.943 318.352 377.586 361.072C460.404 407.849 516.793 416.783 642.371 474.681C834.07 563.065 983.543 631.472 1118.73 573.729C1234.2 524.402 1290.2 454.038 1392.47 296.659C1463.63 187.156 1569.27 22.2709 1758.51 -174.495" stroke="#0057FF" stroke-width="1.41844" stroke-miterlimit="10"/>
<path d="M-32.0645 339.71C156.426 280.345 295.721 328.948 369.274 364.847C454.493 406.445 515.097 412.916 646.255 468.749C840.121 551.264 975.97 616.095 1108.36 564.557C1228.77 517.688 1291.5 447.877 1401.33 291.053C1475.7 184.848 1584.44 23.5681 1769.74 -171.264" stroke="#0057FF" stroke-width="1.41844" stroke-miterlimit="10"/>
<path d="M-31.5254 374.778C149.591 300.133 289.713 339.272 360.962 368.627C448.805 404.817 513.317 409.18 650.143 462.817C846.124 539.643 968.494 600.99 1098 555.384C1223.41 511.221 1292.66 441.605 1410.18 285.441C1487.67 182.467 1599.61 24.8701 1780.97 -168.028" stroke="#0057FF" stroke-width="1.41844" stroke-miterlimit="10"/>
<path d="M-30.9863 409.841C142.762 319.921 283.884 349.295 352.649 372.402C443.317 402.869 511.528 405.585 654.016 456.88C852.083 528.182 961.076 586.114 1087.63 546.216C1218.16 505.041 1293.67 435.197 1419.02 279.83C1499.57 180.004 1614.78 26.1577 1792.19 -164.778" stroke="#0057FF" stroke-width="1.41844" stroke-miterlimit="10"/>
<path d="M-30.4468 444.904C135.927 339.705 278.173 358.993 344.318 376.177C437.956 400.498 509.7 402.125 657.895 450.948C858.037 516.881 953.687 571.524 1077.26 537.043C1212.95 499.182 1294.56 428.648 1427.86 274.204C1511.38 177.444 1629.94 27.4548 1803.4 -161.571" stroke="#0057FF" stroke-width="1.41844" stroke-miterlimit="10"/>
<path d="M-29.9077 479.971C129.117 359.493 272.509 368.359 336.025 379.951C432.706 397.597 507.897 398.807 661.798 445.01C864.006 505.74 946.328 557.138 1066.91 527.875C1207.8 493.677 1295.37 421.962 1436.73 268.611C1523.18 174.825 1645.13 28.7711 1814.64 -158.317" stroke="#0057FF" stroke-width="1.41844" stroke-miterlimit="10"/>
<path d="M-29.3438 515.035C122.283 379.282 267.503 394.974 327.737 383.732C426.26 365.338 506.098 395.63 665.711 439.079C870.009 494.703 938.92 542.966 1056.55 518.703C1202.66 488.581 1296.06 415.078 1445.58 263C1534.93 172.119 1660.3 30.0737 1825.87 -155.061" stroke="#0057FF" stroke-width="1.41844" stroke-miterlimit="10"/>
<path d="M-28.8271 550.098C115.431 399.07 262.381 400.658 319.403 387.507C419.345 364.459 504.253 392.584 669.572 433.147C876.033 483.82 931.426 529.003 1046.19 509.531C1197.5 483.888 1296.68 408.048 1454.43 257.379C1546.65 169.311 1675.47 31.3612 1837.09 -151.854" stroke="#0057FF" stroke-width="1.41844" stroke-miterlimit="10"/>
<path d="M-28.2881 585.166C108.596 418.853 256.587 405.784 311.09 391.282C412.831 364.216 502.439 389.674 673.46 427.234C882.089 473.03 923.838 515.201 1035.82 500.387C1192.31 479.686 1297.22 400.868 1463.29 251.802C1558.36 166.464 1690.64 32.6877 1848.32 -148.584" stroke="#0057FF" stroke-width="1.41844" stroke-miterlimit="10"/>
<path d="M-27.749 620.229C101.761 438.642 248.367 403.059 302.783 395.057C409.967 379.33 500.655 386.885 677.348 421.292C888.208 462.331 916.118 501.539 1025.47 491.205C1187.03 475.92 1297.71 393.454 1472.15 246.166C1570.07 163.476 1705.82 33.9751 1859.55 -145.373" stroke="#0057FF" stroke-width="1.41844" stroke-miterlimit="10"/>
<path d="M-27.2095 655.293C94.9269 458.43 241.591 411.308 294.466 398.837C403.177 373.199 498.88 384.223 681.227 415.355C894.366 451.73 908.225 488.027 1015.1 482.032C1181.63 472.694 1298.15 385.933 1480.99 240.569C1581.77 160.44 1720.98 35.2869 1870.77 -142.123" stroke="#0057FF" stroke-width="1.41844" stroke-miterlimit="10"/>
<path d="M-26.6704 690.36C88.097 478.218 234.352 419.567 286.154 402.611C395.764 366.717 497.14 381.676 685.115 409.413C900.598 441.206 900.145 474.623 1004.74 472.854C1176.08 469.939 1298.57 378.207 1489.84 234.952C1593.49 157.334 1736.15 36.5739 1882 -138.897" stroke="#0057FF" stroke-width="1.41844" stroke-miterlimit="10"/>
</g>
<defs>
<clipPath id="clip0_550_22">
<rect width="1844" height="728" fill="white"/>
</clipPath>
</defs>
</svg>
