<svg width="28" height="28" viewBox="0 0 28 28" fill="none" xmlns="http://www.w3.org/2000/svg">
<g clip-path="url(#clip0_516_21)">
<path fill-rule="evenodd" clip-rule="evenodd" d="M26 1H2C1.44772 1 1 1.44772 1 2V26C1 26.5523 1.44772 27 2 27H26C26.5523 27 27 26.5523 27 26V2C27 1.44772 26.5523 1 26 1ZM2 0C0.895431 0 0 0.895431 0 2V26C0 27.1046 0.895431 28 2 28H26C27.1046 28 28 27.1046 28 26V2C28 0.895431 27.1046 0 26 0H2Z" fill="black"/>
</g>
<defs>
<clipPath id="clip0_516_21">
<rect width="28" height="28" fill="white"/>
</clipPath>
</defs>
</svg>
