<svg width="356" height="220" viewBox="0 0 356 220" fill="none" xmlns="http://www.w3.org/2000/svg">
<g clip-path="url(#clip0_2065_4006)">
<rect width="356" height="220" fill="url(#paint0_linear_2065_4006)"/>
<g opacity="0.25">
<g clip-path="url(#clip1_2065_4006)">
<rect width="380" height="252" rx="15.2" transform="matrix(-1 0 0 1 368 -16)" fill="#E9E1F1"/>
<g filter="url(#filter0_f_2065_4006)">
<path d="M216.189 12.1586C274.097 91.0145 19.7792 128.058 74.2383 157.447C128.697 186.836 328.119 147.284 356.183 95.2793C384.248 43.2742 362.851 -22.7088 308.392 -52.0977C253.933 -81.4867 188.075 -26.1251 216.189 12.1586Z" fill="url(#paint1_linear_2065_4006)"/>
</g>
<g filter="url(#filter1_f_2065_4006)">
<path d="M211.706 147.439C196.632 186.613 60.2818 239.716 42.7695 163.864C25.2572 88.0124 -86.653 77.6029 -71.5788 38.4295C-56.5047 -0.743917 19.1308 -8.09759 97.3578 22.0046C175.585 52.1068 226.78 108.266 211.706 147.439Z" fill="url(#paint2_linear_2065_4006)" fill-opacity="0.15"/>
</g>
</g>
</g>
</g>
<defs>
<filter id="filter0_f_2065_4006" x="-1.46045" y="-128.378" width="437.991" height="363.856" filterUnits="userSpaceOnUse" color-interpolation-filters="sRGB">
<feFlood flood-opacity="0" result="BackgroundImageFix"/>
<feBlend mode="normal" in="SourceGraphic" in2="BackgroundImageFix" result="shape"/>
<feGaussianBlur stdDeviation="34" result="effect1_foregroundBlur_2065_4006"/>
</filter>
<filter id="filter1_f_2065_4006" x="-124.971" y="-48.5229" width="391.31" height="302.858" filterUnits="userSpaceOnUse" color-interpolation-filters="sRGB">
<feFlood flood-opacity="0" result="BackgroundImageFix"/>
<feBlend mode="normal" in="SourceGraphic" in2="BackgroundImageFix" result="shape"/>
<feGaussianBlur stdDeviation="26" result="effect1_foregroundBlur_2065_4006"/>
</filter>
<linearGradient id="paint0_linear_2065_4006" x1="178" y1="0" x2="178" y2="220" gradientUnits="userSpaceOnUse">
<stop stop-color="white"/>
<stop offset="1" stop-color="white" stop-opacity="0.25"/>
</linearGradient>
<linearGradient id="paint1_linear_2065_4006" x1="280" y1="40.5005" x2="20.5001" y2="159.5" gradientUnits="userSpaceOnUse">
<stop stop-color="#6D76E9"/>
<stop offset="1" stop-color="#6D76E9" stop-opacity="0.38"/>
</linearGradient>
<linearGradient id="paint2_linear_2065_4006" x1="205" y1="155" x2="-47.9997" y2="46.4998" gradientUnits="userSpaceOnUse">
<stop stop-color="#0057FF" stop-opacity="0.25"/>
<stop offset="1" stop-color="#0057FF"/>
</linearGradient>
<clipPath id="clip0_2065_4006">
<rect width="356" height="220" fill="white"/>
</clipPath>
<clipPath id="clip1_2065_4006">
<rect width="380" height="252" rx="15.2" transform="matrix(-1 0 0 1 368 -16)" fill="white"/>
</clipPath>
</defs>
</svg>
