<svg width="48" height="48" viewBox="0 0 48 48" fill="none" xmlns="http://www.w3.org/2000/svg">
<rect width="48" height="48" rx="12" fill="#1B1B1B"/>
<path d="M23 20V23.5C23 24.3284 23.6716 25 24.5 25V25H26M33 26V22M28.8818 16.914C28.3859 14.6748 26.3886 13 24.0001 13H22.0001C19.6116 13 17.6143 14.6747 17.1184 16.9139M28.8818 16.914C28.6878 16.7772 28.4834 16.6537 28.27 16.545C27.2004 16 25.8003 16 23 16C20.1997 16 18.7996 16 17.73 16.545C17.5167 16.6537 17.3124 16.7771 17.1184 16.9139M28.8818 16.914C29.5431 17.3804 30.0844 18.0027 30.455 18.73C31 19.7996 31 21.1997 31 24C31 26.8003 31 28.2004 30.455 29.27C30.0844 29.9974 29.543 30.6197 28.8815 31.0862M17.1184 16.9139C16.457 17.3803 15.9156 18.0026 15.545 18.73C15 19.7996 15 21.1997 15 24C15 26.8003 15 28.2004 15.545 29.27C15.9156 29.9973 16.4568 30.6195 17.1181 31.0859M17.1181 31.0859C17.614 33.3252 19.6113 35 21.9998 35H23.9998C26.3882 35 28.3855 33.3253 28.8815 31.0862M17.1181 31.0859C17.3122 31.2228 17.5166 31.3463 17.73 31.455C18.7996 32 20.1997 32 23 32C25.8003 32 27.2004 32 28.27 31.455C28.4833 31.3463 28.6876 31.223 28.8815 31.0862" stroke="white" stroke-width="1.5" stroke-linecap="round"/>
</svg>
