<?xml version="1.0" encoding="utf-8"?><svg viewBox="0 0 38 38" xmlns="http://www.w3.org/2000/svg" xmlns:xlink="http://www.w3.org/1999/xlink"><style>:root>svg{display:none}:root>svg:target{display:block}</style><svg viewBox="0 0 28 28" id="add" xmlns="http://www.w3.org/2000/svg"><path fill-rule="evenodd" clip-rule="evenodd" d="M14 4a.5.5 0 01.5.5v9h9a.5.5 0 010 1h-9v9a.5.5 0 01-1 0v-9h-9a.5.5 0 010-1h9v-9A.5.5 0 0114 4z"/></svg><svg viewBox="0 0 20 20" id="arrow-type-1" xmlns="http://www.w3.org/2000/svg"><path fill-rule="evenodd" clip-rule="evenodd" d="M8.523 4.73a.75.75 0 01.747-.753l2.171-.01c.811-.003 1.483-.006 2.022.052.564.062 1.078.2 1.522.543.192.149.365.322.514.514.344.444.48.958.542 1.522.06.539.056 1.21.053 2.022l-.01 2.171a.75.75 0 11-1.5-.007l.01-2.127c.003-.866.005-1.452-.044-1.897a3.66 3.66 0 00-.022-.167l-8.967 8.968A.75.75 0 114.5 14.5l8.967-8.969a3.716 3.716 0 00-.168-.021c-.444-.049-1.03-.047-1.896-.044l-2.128.01a.75.75 0 01-.753-.747z"/></svg><svg viewBox="0 0 30 30" id="close" xmlns="http://www.w3.org/2000/svg"><path fill-rule="evenodd" clip-rule="evenodd" d="M6.952 6.951a1.2 1.2 0 011.697 0L15 13.303l6.352-6.352a1.2 1.2 0 111.697 1.698L16.697 15l6.352 6.352a1.2 1.2 0 11-1.697 1.697L15 16.697 8.65 23.05a1.2 1.2 0 11-1.697-1.697L13.303 15 6.952 8.649a1.2 1.2 0 010-1.698z"/></svg><svg fill="none" viewBox="0 0 24 24" id="menu-close" xmlns="http://www.w3.org/2000/svg"><path fill-rule="evenodd" clip-rule="evenodd" d="M4.27 4.27a.75.75 0 011.06 0L12 10.94l6.67-6.67a.75.75 0 111.06 1.06L13.062 12l6.67 6.67a.75.75 0 01-1.061 1.06L12 13.06l-6.67 6.67a.75.75 0 11-1.06-1.06L10.94 12 4.27 5.33a.75.75 0 010-1.06z" fill="#939393"/></svg><svg fill="none" viewBox="0 0 38 38" id="menu-open" xmlns="http://www.w3.org/2000/svg"><rect width="38" height="38" rx="19" fill="#F3F3F3"/><path d="M8 14a1 1 0 011-1h20a1 1 0 110 2H9a1 1 0 01-1-1zM8 19a1 1 0 011-1h20a1 1 0 110 2H9a1 1 0 01-1-1zM8 24a1 1 0 011-1h20a1 1 0 110 2H9a1 1 0 01-1-1z" fill="#313131"/></svg><svg viewBox="0 0 24 24" id="minus" xmlns="http://www.w3.org/2000/svg"><path d="M6 11h12a1 1 0 010 2H6a1 1 0 010-2z"/></svg><svg viewBox="0 0 24 24" id="plus" xmlns="http://www.w3.org/2000/svg"><path d="M6 11h12a1 1 0 010 2H6a1 1 0 010-2z"/><path d="M11 18V6a1 1 0 012 0v12a1 1 0 01-2 0z"/></svg><svg viewBox="0 0 24 24" id="sound-wave" xmlns="http://www.w3.org/2000/svg"><path d="M12 3.15c-.37 0-.668.299-.668.667v16.366a.668.668 0 001.336 0V3.818A.668.668 0 0012 3.149zM7.324 6.656c-.369 0-.668.3-.668.668v9.352a.668.668 0 001.336 0V7.324a.668.668 0 00-.668-.668zM2.648 8.994c-.369 0-.668.3-.668.668v4.676a.668.668 0 001.336 0V9.662c0-.369-.299-.668-.668-.668zM16.676 6.656c-.37 0-.668.3-.668.668v9.352a.668.668 0 001.336 0V7.324c0-.369-.3-.668-.668-.668zM21.352 8.994c-.37 0-.668.3-.668.668v4.676a.668.668 0 001.335 0V9.662c0-.369-.299-.668-.667-.668z"/></svg></svg>