<svg width="38" height="38" viewBox="0 0 38 38" fill="none" xmlns="http://www.w3.org/2000/svg">
<rect width="38" height="38" rx="19" fill="#F3F3F3"/>
<path d="M8 14C8 13.4477 8.44772 13 9 13H29C29.5523 13 30 13.4477 30 14V14C30 14.5523 29.5523 15 29 15H9C8.44772 15 8 14.5523 8 14V14Z" fill="#313131"/>
<path d="M8 19C8 18.4477 8.44772 18 9 18H29C29.5523 18 30 18.4477 30 19V19C30 19.5523 29.5523 20 29 20H9C8.44772 20 8 19.5523 8 19V19Z" fill="#313131"/>
<path d="M8 24C8 23.4477 8.44772 23 9 23H29C29.5523 23 30 23.4477 30 24V24C30 24.5523 29.5523 25 29 25H9C8.44772 25 8 24.5523 8 24V24Z" fill="#313131"/>
</svg>
