<svg width="20" height="20" viewBox="0 0 20 20" xmlns="http://www.w3.org/2000/svg"><path fill-rule="evenodd" clip-rule="evenodd" d="M8.52311 4.73025C8.52126 4.31604 8.85555 3.97876 9.26976 3.97691L11.4411 3.96722C12.2522 3.96358 12.9241 3.96057 13.4634 4.01946C14.0274 4.08106 14.5406 4.21807 14.985 4.56201C15.1774 4.71089 15.35 4.88356 15.4989 5.07594C15.8428 5.52036 15.9799 6.0335 16.0415 6.59755C16.1004 7.13684 16.0973 7.80878 16.0937 8.61987L16.084 10.7912C16.0822 11.2054 15.7449 11.5397 15.3307 11.5378C14.9165 11.536 14.5822 11.1987 14.584 10.7845L14.5935 8.65692C14.5974 7.79094 14.5989 7.20484 14.5503 6.76039C14.5438 6.70033 14.5364 6.64473 14.5284 6.59315L5.56079 15.5608C5.2679 15.8537 4.79303 15.8537 4.50013 15.5608C4.20724 15.2679 4.20724 14.793 4.50013 14.5001L13.4678 5.53249C13.4162 5.52447 13.3606 5.51716 13.3005 5.5106C12.8561 5.46206 12.27 5.46354 11.404 5.4674L9.27645 5.47689C8.86224 5.47874 8.52496 5.14446 8.52311 4.73025Z"/></svg>