<svg width="24" height="24" viewBox="0 0 24 24" fill="none" xmlns="http://www.w3.org/2000/svg">
<path fill-rule="evenodd" clip-rule="evenodd" d="M4.26996 4.26972C4.56286 3.97683 5.03773 3.97683 5.33062 4.26972L12.0003 10.9394L18.67 4.26972C18.9629 3.97683 19.4377 3.97683 19.7306 4.26972C20.0235 4.56261 20.0235 5.03749 19.7306 5.33038L13.061 12L19.7306 18.6697C20.0235 18.9626 20.0235 19.4375 19.7306 19.7304C19.4377 20.0233 18.9629 20.0233 18.67 19.7304L12.0003 13.0607L5.33062 19.7304C5.03773 20.0233 4.56286 20.0233 4.26996 19.7304C3.97707 19.4375 3.97707 18.9626 4.26996 18.6697L10.9396 12L4.26996 5.33038C3.97707 5.03749 3.97707 4.56261 4.26996 4.26972Z" fill="#939393"/>
</svg>
