<svg width="24" height="24" viewBox="0 0 24 24" xmlns="http://www.w3.org/2000/svg"><path d="M11.9999 3.14941C11.6309 3.14941 11.332 3.44866 11.332 3.81729V20.1827C11.332 20.5517 11.6313 20.8505 11.9999 20.8505C12.3685 20.8505 12.6678 20.5513 12.6678 20.1827V3.81766C12.6678 3.44866 12.3689 3.14941 11.9999 3.14941Z"/><path d="M7.32413 6.65625C6.95513 6.65625 6.65625 6.9555 6.65625 7.32413V16.6759C6.65625 17.0449 6.9555 17.3438 7.32413 17.3438C7.69275 17.3438 7.992 17.0445 7.992 16.6759V7.32413C7.99238 6.9555 7.69313 6.65625 7.32413 6.65625Z"/><path d="M2.64834 8.99414C2.27934 8.99414 1.98047 9.29339 1.98047 9.66202V14.3379C1.98047 14.7069 2.27972 15.0058 2.64834 15.0058C3.01697 15.0058 3.31622 14.7065 3.31622 14.3379V9.66239C3.31622 9.29339 3.01697 8.99414 2.64834 8.99414Z"/><path d="M16.6757 6.65625C16.3067 6.65625 16.0078 6.9555 16.0078 7.32413V16.6759C16.0078 17.0449 16.3071 17.3438 16.6757 17.3438C17.0443 17.3438 17.3436 17.0445 17.3436 16.6759V7.32413C17.3436 6.9555 17.0443 6.65625 16.6757 6.65625Z"/><path d="M21.3515 8.99414C20.9825 8.99414 20.6836 9.29339 20.6836 9.66202V14.3379C20.6836 14.7069 20.9828 15.0058 21.3515 15.0058C21.7201 15.0058 22.0193 14.7065 22.0193 14.3379V9.66239C22.0193 9.29339 21.7201 8.99414 21.3515 8.99414Z"/></svg>