<svg width="46" height="46" viewBox="0 0 46 46" fill="none" xmlns="http://www.w3.org/2000/svg">
<path d="M23 25.875L34.5 18.2083L23 10.5417V25.875ZM24.3417 36.4167H35.075C34.8514 37.2472 34.4681 37.9181 33.925 38.4292C33.3819 38.9403 32.6792 39.2597 31.8167 39.3875L10.925 41.9271C9.87083 42.0868 8.92049 41.8392 8.07396 41.1844C7.22743 40.5295 6.74028 39.675 6.6125 38.6208L4.07292 17.6813C3.94514 16.6271 4.20069 15.6847 4.83958 14.8542C5.47847 14.0236 6.325 13.5444 7.37917 13.4167L9.58333 13.1292V16.9625L7.85833 17.2021L10.4458 38.1417L24.3417 36.4167ZM17.25 32.5833C16.1958 32.5833 15.2934 32.208 14.5427 31.4573C13.792 30.7066 13.4167 29.8042 13.4167 28.75V7.66667C13.4167 6.6125 13.792 5.71007 14.5427 4.95937C15.2934 4.20868 16.1958 3.83333 17.25 3.83333H38.3333C39.3875 3.83333 40.2899 4.20868 41.0406 4.95937C41.7913 5.71007 42.1667 6.6125 42.1667 7.66667V28.75C42.1667 29.8042 41.7913 30.7066 41.0406 31.4573C40.2899 32.208 39.3875 32.5833 38.3333 32.5833H17.25ZM17.25 28.75H38.3333V7.66667H17.25V28.75Z" fill="#0057FF"/>
</svg>
